<svg width="60" height="60" viewBox="0 0 60 60" fill="none" xmlns="http://www.w3.org/2000/svg">
<path fill-rule="evenodd" clip-rule="evenodd" d="M30 7.5C23.889 7.5 23.124 7.5255 20.724 7.635C18.3285 7.7445 16.692 8.1255 15.261 8.682C13.761 9.246 12.4005 10.131 11.2755 11.277C10.1313 12.4007 9.24579 13.7602 8.6805 15.261C8.127 16.692 7.7445 18.33 7.635 20.7255C7.527 23.124 7.5 23.8875 7.5 30C7.5 36.1125 7.5255 36.876 7.635 39.276C7.7445 41.6715 8.1255 43.308 8.682 44.739C9.246 46.239 10.131 47.5995 11.277 48.7245C12.4007 49.8686 13.7603 50.7542 15.261 51.3195C16.692 51.8745 18.3285 52.2555 20.724 52.365C23.124 52.4745 23.889 52.5 30 52.5C36.111 52.5 36.876 52.4745 39.276 52.365C41.6715 52.2555 43.308 51.8745 44.739 51.318C46.239 50.754 47.5995 49.869 48.7245 48.723C49.8687 47.5993 50.7542 46.2398 51.3195 44.739C51.8745 43.308 52.2555 41.6715 52.365 39.276C52.4745 36.876 52.5 36.111 52.5 30C52.5 23.889 52.4745 23.124 52.365 20.724C52.2555 18.3285 51.8745 16.692 51.318 15.261C50.7531 13.7596 49.8675 12.3995 48.723 11.2755C47.5993 10.1313 46.2398 9.24579 44.739 8.6805C43.308 8.127 41.67 7.7445 39.2745 7.635C36.876 7.527 36.1125 7.5 30 7.5ZM30 11.5545C36.0075 11.5545 36.72 11.577 39.093 11.685C41.286 11.7855 42.477 12.15 43.2705 12.4605C44.3205 12.867 45.0705 13.356 45.858 14.142C46.6455 14.9295 47.133 15.6795 47.5395 16.7295C47.8485 17.523 48.2145 18.714 48.315 20.907C48.423 23.28 48.4455 23.9925 48.4455 30C48.4455 36.0075 48.423 36.72 48.315 39.093C48.2145 41.286 47.85 42.477 47.5395 43.2705C47.1794 44.2478 46.6048 45.132 45.858 45.858C45.1321 46.605 44.2479 47.1796 43.2705 47.5395C42.477 47.8485 41.286 48.2145 39.093 48.315C36.72 48.423 36.009 48.4455 30 48.4455C23.991 48.4455 23.28 48.423 20.907 48.315C18.714 48.2145 17.523 47.85 16.7295 47.5395C15.7522 47.1794 14.868 46.6048 14.142 45.858C13.3953 45.1319 12.8207 44.2478 12.4605 43.2705C12.1515 42.477 11.7855 41.286 11.685 39.093C11.577 36.72 11.5545 36.0075 11.5545 30C11.5545 23.9925 11.577 23.28 11.685 20.907C11.7855 18.714 12.15 17.523 12.4605 16.7295C12.867 15.6795 13.356 14.9295 14.142 14.142C14.8679 13.3951 15.7521 12.8205 16.7295 12.4605C17.523 12.1515 18.714 11.7855 20.907 11.685C23.28 11.577 23.9925 11.5545 30 11.5545Z" fill="#F9E0BB"/>
<path fill-rule="evenodd" clip-rule="evenodd" d="M29.9996 37.5075C29.0137 37.5075 28.0374 37.3133 27.1266 36.936C26.2157 36.5587 25.3881 36.0057 24.691 35.3086C23.9938 34.6115 23.4408 33.7838 23.0635 32.873C22.6863 31.9621 22.4921 30.9859 22.4921 30C22.4921 29.0141 22.6863 28.0379 23.0635 27.127C23.4408 26.2162 23.9938 25.3885 24.691 24.6914C25.3881 23.9943 26.2157 23.4413 27.1266 23.064C28.0374 22.6867 29.0137 22.4925 29.9996 22.4925C31.9907 22.4925 33.9002 23.2835 35.3082 24.6914C36.7161 26.0993 37.5071 28.0089 37.5071 30C37.5071 31.9911 36.7161 33.9007 35.3082 35.3086C33.9002 36.7165 31.9907 37.5075 29.9996 37.5075ZM29.9996 18.435C26.9323 18.435 23.9907 19.6535 21.8219 21.8223C19.653 23.9912 18.4346 26.9328 18.4346 30C18.4346 33.0672 19.653 36.0088 21.8219 38.1777C23.9907 40.3465 26.9323 41.565 29.9996 41.565C33.0668 41.565 36.0084 40.3465 38.1773 38.1777C40.3461 36.0088 41.5646 33.0672 41.5646 30C41.5646 26.9328 40.3461 23.9912 38.1773 21.8223C36.0084 19.6535 33.0668 18.435 29.9996 18.435ZM44.9291 18.225C44.9291 18.95 44.641 19.6454 44.1284 20.1581C43.6157 20.6707 42.9203 20.9587 42.1953 20.9587C41.4703 20.9587 40.7749 20.6707 40.2623 20.1581C39.7496 19.6454 39.4616 18.95 39.4616 18.225C39.4616 17.5 39.7496 16.8046 40.2623 16.2919C40.7749 15.7793 41.4703 15.4912 42.1953 15.4912C42.9203 15.4912 43.6157 15.7793 44.1284 16.2919C44.641 16.8046 44.9291 17.5 44.9291 18.225Z" fill="#F9E0BB"/>
</svg>
