<svg width="60" height="60" viewBox="0 0 60 60" fill="none" xmlns="http://www.w3.org/2000/svg">
<path d="M45.2886 15.0223C42.5952 13.2663 40.6513 10.4565 40.0449 7.18116C39.9139 6.47349 39.8419 5.74518 39.8419 5H31.2459L31.2321 39.4499C31.0876 43.3077 27.9125 46.404 24.0201 46.404C22.8103 46.404 21.6712 46.1015 20.6682 45.5737C18.3683 44.3634 16.7943 41.9526 16.7943 39.1783C16.7943 35.1938 20.0359 31.9521 24.0201 31.9521C24.7638 31.9521 25.4773 32.0748 26.1522 32.2862V23.5106C25.4537 23.4155 24.7441 23.3561 24.0201 23.3561C15.2957 23.3561 8.19824 30.4539 8.19824 39.1783C8.19824 44.531 10.8726 49.268 14.9527 52.1324C17.5227 53.9367 20.6487 55 24.0201 55C32.7444 55 39.8419 47.9026 39.8419 39.1783V21.7092C43.2134 24.129 47.344 25.555 51.8012 25.555V16.959C49.4002 16.959 47.164 16.2452 45.2886 15.0223Z" fill="#F9E0BB"/>
</svg>
