<svg width="40" height="38" viewBox="0 0 40 38" fill="none" xmlns="http://www.w3.org/2000/svg">
<path d="M19.7157 0C8.93887 0 0.168467 8.4474 0.164667 18.829C0.162133 22.1489 1.064 25.3891 2.774 28.2429L0 38L10.3651 35.3818C13.2483 36.89 16.4542 37.6767 19.7081 37.6745H19.7157C30.4925 37.6745 39.2629 29.2258 39.2667 18.8442C39.2692 13.8155 37.2375 9.082 33.5451 5.52393C29.8541 1.9646 24.9457 0.00126667 19.7157 0ZM19.7157 34.4939H19.7093C16.7935 34.4939 13.9333 33.7389 11.438 32.3127L10.8427 31.9732L4.69427 33.5261L6.33587 27.7501L5.94953 27.1586C4.32681 24.6837 3.46298 21.7884 3.46433 18.829C3.46813 10.1992 10.7591 3.1806 19.722 3.1806C24.0616 3.18187 28.1415 4.81207 31.2107 7.76973C34.2798 10.7274 35.9683 14.6604 35.9657 18.8429C35.9619 27.4727 28.6723 34.4939 19.7144 34.4939H19.7157ZM28.6292 22.7709C28.1403 22.5365 25.7387 21.3978 25.2903 21.2395C24.8431 21.0837 24.5176 21.0026 24.1921 21.4738C23.8678 21.945 22.9305 23.0052 22.6467 23.3181C22.3605 23.6322 22.0755 23.6702 21.5865 23.4359C21.0976 23.2003 19.5231 22.7037 17.6586 21.1001C16.2057 19.8537 15.2253 18.3135 14.9403 17.841C14.6553 17.3711 14.9099 17.1165 15.1544 16.8821C15.3735 16.6731 15.6433 16.3337 15.8865 16.0588C16.1297 15.7839 16.2108 15.5876 16.3755 15.2735C16.5376 14.9606 16.4565 14.6845 16.3337 14.4501C16.2108 14.2133 15.2355 11.8978 14.8263 10.9567C14.4311 10.0396 14.0283 10.1625 13.7281 10.1473C13.4431 10.1346 13.1189 10.1308 12.7908 10.1308C12.4678 10.1308 11.9371 10.2486 11.4887 10.7198C11.0415 11.191 9.77867 12.3285 9.77867 14.6439C9.77867 16.9607 11.5292 19.1976 11.7737 19.5117C12.0181 19.8246 15.219 24.5784 20.1197 26.6177C21.2851 27.1003 22.1945 27.3904 22.9051 27.6083C24.0755 27.9667 25.1408 27.9148 25.9819 27.7945C26.9192 27.6589 28.8724 26.657 29.2777 25.5588C29.6856 24.4606 29.6856 23.5182 29.564 23.3219C29.4449 23.1255 29.1181 23.0077 28.6292 22.7709Z" fill="#F9E0BB"/>
</svg>
